Coordinates
version=1
nRows=23
nColumns=38
inDegrees=no

Units are S.I. units (second, meters, Newtons, ...)
If the header above contains a line with 'inDegrees', this indicates whether rotational values are in degrees (yes) or radians (no).

endheader
time	pelvis_tilt	pelvis_list	pelvis_rotation	pelvis_tx	pelvis_ty	pelvis_tz	hip_flexion_r	hip_adduction_r	hip_rotation_r	knee_angle_r	ankle_angle_r	subtalar_angle_r	mtp_angle_r	hip_flexion_l	hip_adduction_l	hip_rotation_l	knee_angle_l	ankle_angle_l	subtalar_angle_l	mtp_angle_l	lumbar_extension	lumbar_bending	lumbar_rotation	arm_flex_r	arm_add_r	arm_rot_r	elbow_flex_r	pro_sup_r	wrist_flex_r	wrist_dev_r	arm_flex_l	arm_add_l	arm_rot_l	elbow_flex_l	pro_sup_l	wrist_flex_l	wrist_dev_l
0.64	-2.42079	1.46816	-2.23279	0.477152	-0.164676	0.932383	0.239968	-0.245633	-0.143786	1.40094	-0.00589961	0	0	0.124889	0.0999878	-0.200439	0.381062	0.248685	0	0	-0.185506	-0.135336	-0.0879862	-0.232118	-0.220463	0.00220991	0.649335	0.52441	0	0	-0.221635	-0.351344	0.075434	0.691166	1.30897	0	0
0.65	-2.48098	1.46983	-2.16621	0.476058	-0.154521	0.93444	0.261973	-0.24234	-0.142875	1.40645	0.00804972	0	0	0.101003	0.0960094	-0.192092	0.363433	0.248629	0	0	-0.187406	-0.127065	-0.09685	-0.233648	-0.220949	0.00236157	0.648527	0.527533	0	0	-0.219325	-0.352894	0.0761933	0.697913	1.30158	0	0
0.66	-2.54168	1.47197	-2.09884	0.475036	-0.144526	0.936294	0.283943	-0.238704	-0.143322	1.40813	0.0231885	0	0	0.0795638	0.0906965	-0.186421	0.34877	0.249229	0	0	-0.188605	-0.118394	-0.105758	-0.235182	-0.221172	0.00204359	0.648419	0.531274	0	0	-0.21684	-0.354857	0.0777716	0.704969	1.29338	0	0
0.67	-2.60804	1.46958	-2.02662	0.473992	-0.13453	0.938502	0.300224	-0.237032	-0.144089	1.40491	0.0409668	0	0	0.0479479	0.0896596	-0.170125	0.319886	0.24285	0	0	-0.194156	-0.111302	-0.113924	-0.236118	-0.22072	-0.00154262	0.648314	0.539343	0	0	-0.213731	-0.356373	0.0762171	0.713014	1.29793	0	0
0.68	-2.67242	1.46877	-1.95596	0.473016	-0.124703	0.94033	0.317693	-0.234404	-0.14659	1.39796	0.0587935	0	0	0.021837	0.0858344	-0.158202	0.298443	0.239412	0	0	-0.197692	-0.10323	-0.121957	-0.237104	-0.220408	-0.00432688	0.648983	0.544262	0	0	-0.210142	-0.358482	0.0767796	0.720004	1.29161	0	0
0.69	-2.73517	1.46728	-1.88683	0.472097	-0.114978	0.942012	0.333624	-0.231876	-0.150353	1.38676	0.0754961	0	0	-0.00404223	0.0818128	-0.145325	0.27714	0.234778	0	0	-0.201758	-0.0952002	-0.13021	-0.237617	-0.220161	-0.00700064	0.650446	0.549898	0	0	-0.206456	-0.360825	0.077032	0.726653	1.28552	0	0
0.7	-2.7949	1.46489	-1.82094	0.471258	-0.105294	0.943557	0.347926	-0.229489	-0.155817	1.37122	0.089441	0	0	-0.0302761	0.0777604	-0.131786	0.255536	0.229365	0	0	-0.206438	-0.0874116	-0.138327	-0.237728	-0.219883	-0.0097793	0.652644	0.555964	0	0	-0.202567	-0.363409	0.0775441	0.73292	1.27944	0	0
0.71	-2.87547	1.46201	-1.73893	0.469791	-0.0957666	0.944734	0.362118	-0.230764	-0.16024	1.35125	0.105016	0	0	-0.05445	0.0800387	-0.107795	0.238998	0.218508	0	0	-0.211349	-0.0760611	-0.142875	-0.236605	-0.221397	-0.0133227	0.65578	0.561747	0	0	-0.198926	-0.364418	0.0786765	0.738663	1.27314	0	0
0.72	-2.92642	1.45888	-1.68342	0.469185	-0.086121	0.945849	0.37441	-0.228705	-0.164731	1.32724	0.116813	0	0	-0.0792777	0.0752535	-0.0964039	0.219952	0.215382	0	0	-0.215752	-0.0688588	-0.148923	-0.236084	-0.221047	-0.0169167	0.65879	0.566846	0	0	-0.194393	-0.367337	0.0796698	0.745435	1.26612	0	0
0.73	-2.96678	1.45562	-1.63909	0.468719	-0.0764369	0.946704	0.385482	-0.229462	-0.1725	1.29993	0.127739	0	0	-0.103583	0.0711141	-0.0858404	0.201865	0.213226	0	0	-0.219755	-0.0628345	-0.154675	-0.234863	-0.220961	-0.0183986	0.661323	0.571702	0	0	-0.190325	-0.370547	0.080067	0.753031	1.2586	0	0
0.74	-3.00481	1.45273	-1.59785	0.468396	-0.0668208	0.947296	0.395769	-0.228281	-0.178912	1.26829	0.138597	0	0	-0.125979	0.0664993	-0.0775037	0.186637	0.213178	0	0	-0.223384	-0.0569519	-0.159717	-0.232614	-0.221069	-0.0183562	0.663621	0.575764	0	0	-0.186059	-0.373975	0.08057	0.76014	1.25036	0	0
0.75	-3.01407	1.45136	-1.58139	0.469	-0.0571688	0.947695	0.405794	-0.220722	-0.183388	1.23298	0.143443	0	0	-0.145875	0.055411	-0.0842503	0.172293	0.221335	0	0	-0.225376	-0.0557423	-0.166936	-0.230739	-0.219036	-0.0182231	0.664659	0.578681	0	0	-0.180503	-0.379415	0.0821123	0.766186	1.24108	0	0
0.76	-3.05933	1.44636	-1.53901	0.468048	-0.0476389	0.94794	0.411866	-0.222491	-0.186116	1.19307	0.155515	0	0	-0.174468	0.0596834	-0.0528326	0.148141	0.206504	0	0	-0.230834	-0.047889	-0.167727	-0.22575	-0.221707	-0.0163462	0.666838	0.581141	0	0	-0.176254	-0.378595	0.0733293	0.769608	1.27832	0	0
0.77	-3.08096	1.44419	-1.5156	0.468035	-0.0381239	0.947852	0.418817	-0.219473	-0.190568	1.15008	0.160853	0	0	-0.194366	0.0559372	-0.0457375	0.13549	0.20763	0	0	-0.233656	-0.044068	-0.171062	-0.221725	-0.221951	-0.0147583	0.668481	0.585107	0	0	-0.171019	-0.381727	0.0733642	0.773933	1.28047	0	0
0.78	-3.09841	1.4422	-1.4967	0.468088	-0.0286048	0.947557	0.424157	-0.216641	-0.196012	1.1035	0.164052	0	0	-0.212994	0.0524204	-0.0402341	0.125141	0.210366	0	0	-0.236533	-0.0407289	-0.174064	-0.217317	-0.222272	-0.0127741	0.67039	0.588981	0	0	-0.165638	-0.384674	0.0731529	0.77834	1.28269	0	0
0.79	-3.08952	1.44063	-1.49961	0.46887	-0.019042	0.947212	0.427224	-0.210717	-0.201244	1.05404	0.162331	0	0	-0.232171	0.0436522	-0.0457146	0.112039	0.218902	0	0	-0.239648	-0.0417317	-0.179553	-0.213781	-0.220559	-0.011236	0.671723	0.591399	0	0	-0.158851	-0.389281	0.0732699	0.782859	1.28505	0	0
0.8	-3.09649	1.43934	-1.4919	0.469092	-0.00956323	0.946481	0.42992	-0.208778	-0.207446	1.00217	0.165159	0	0	-0.249293	0.0414139	-0.040124	0.103309	0.221387	0	0	-0.242318	-0.0399411	-0.18156	-0.208677	-0.220576	-0.00958045	0.673282	0.592973	0	0	-0.152826	-0.392237	0.0738149	0.786901	1.28762	0	0
0.81	-3.09832	1.43897	-1.48967	0.469403	-5.24704e-05	0.945489	0.431871	-0.207341	-0.215154	0.94783	0.168426	0	0	-0.264971	0.039883	-0.0357702	0.0956249	0.224597	0	0	-0.244021	-0.0389833	-0.182901	-0.203861	-0.220651	-0.00742135	0.675208	0.594803	0	0	-0.146417	-0.39518	0.0751229	0.789673	1.29013	0	0
0.82	-3.09326	1.43963	-1.49441	0.46977	0.00944752	0.944225	0.433199	-0.206622	-0.224049	0.890957	0.171507	0	0	-0.278887	0.0393808	-0.0321305	0.0894456	0.228891	0	0	-0.244765	-0.0391044	-0.183975	-0.199237	-0.220732	-0.0046787	0.677602	0.596974	0	0	-0.139628	-0.398137	0.0772203	0.791723	1.29153	0	0
0.83	-3.08077	1.44143	-1.50712	0.470251	0.0189963	0.942685	0.434355	-0.206544	-0.234146	0.832249	0.173769	0	0	-0.2908	0.0400041	-0.0299725	0.0853684	0.234086	0	0	-0.24431	-0.0405026	-0.184485	-0.1948	-0.220608	-0.00215714	0.680193	0.598625	0	0	-0.132712	-0.401122	0.0798405	0.793205	1.2912	0	0
0.84	-3.06426	1.44371	-1.52444	0.470888	0.0285844	0.940955	0.434485	-0.206219	-0.245779	0.771198	0.175111	0	0	-0.301992	0.0411381	-0.0281721	0.0819307	0.239438	0	0	-0.243533	-0.0425928	-0.184458	-0.190363	-0.220308	0.000211204	0.683135	0.600726	0	0	-0.12569	-0.404471	0.0838456	0.794302	1.28705	0	0
0.85	-3.04621	1.44634	-1.54407	0.471664	0.0382136	0.939073	0.433434	-0.204817	-0.258333	0.70787	0.176961	0	0	-0.313515	0.0426196	-0.0255131	0.0768124	0.243144	0	0	-0.242522	-0.044923	-0.183758	-0.186184	-0.22063	0.00476622	0.687081	0.59735	0	0	-0.118285	-0.406147	0.0822869	0.792811	1.31077	0	0
0.86	-3.02451	1.4503	-1.56795	0.472595	0.0478654	0.936947	0.43293	-0.202734	-0.271513	0.643542	0.17892	0	0	-0.322071	0.0443222	-0.02571	0.0750024	0.248816	0	0	-0.240036	-0.0478163	-0.182126	-0.182165	-0.22017	0.00685653	0.690062	0.598298	0	0	-0.110582	-0.408892	0.0872121	0.790895	1.30884	0	0
